# xmcd
#
# Track frame offsets:
#	150
#	20960
#	41660
#	64465
#
# Disc length: 1131 seconds
#
# Revision: 1
# Processed by: cddbd v1.5PL3 Copyright (c) Steve Scherf et al.
# Submitted via: CDex 1.50Beta5
#
DISCID=39046904
DTITLE=BoA - Every Heart-ミンナノキモチ-
DYEAR=2002
DGENRE=Pop
TTITLE0=Every Heart-ミンナノキモチ-
TTITLE1=Every Heart(English Version)
TTITLE2=LISTEN TO MY HEART(Ken Harada’s TB-Bassin’Remix)
TTITLE3=Every Heart-ミンナノキモチ-(Instrumental)
EXTD=
EXTT0=
EXTT1=
EXTT2=
EXTT3=
PLAYORDER=
